<?xml version="1.0" encoding="utf-8"?>
<!-- Generator: Adobe Illustrator 16.0.0, SVG Export Plug-In . SVG Version: 6.00 Build 0)  -->
<!DOCTYPE svg PUBLIC "-//W3C//DTD SVG 1.1//EN" "http://www.w3.org/Graphics/SVG/1.1/DTD/svg11.dtd">
<svg version="1.1" id="Ebene_1" xmlns="http://www.w3.org/2000/svg" xmlns:xlink="http://www.w3.org/1999/xlink" x="0px" y="0px"
	 width="306.227px" height="32.84px" viewBox="0 0 306.227 32.84" enable-background="new 0 0 306.227 32.84" xml:space="preserve">
<g>
	<path fill="#1B181C" d="M74.509,10.995c0-6.236-1.943-7.373-5.531-7.373H53.657v16.843h14.841c3.558,0,6.01-0.781,6.01-7.256
		L74.509,10.995L74.509,10.995z M50.735,1.232H68.2c7.266,0,9.234,2.268,9.234,10.81c0,7.938-1.968,10.809-9.325,10.809H50.735
		V1.232z"/>
	<path fill="#1B181C" d="M96.474,3.622l-7.253,12.27h14.508L96.474,3.622z M94.659,1.232H98.3l12.835,21.618h-3.314l-2.687-4.566
		H87.817l-2.689,4.566h-3.304L94.659,1.232z"/>
	<polygon fill="#1B181C" points="121.636,22.848 124.554,22.848 124.554,13.717 136.944,1.232 133.004,1.232 123.096,11.263 
		113.159,1.232 109.241,1.232 121.636,13.717 	"/>
	<path fill="#1B181C" d="M141.099,17.623c0,4.714,3.77,5.459,8.029,5.459h8.124c4.33,0,8.686-0.389,8.686-5.699v-1.397
		c0-3.674-2.386-5.316-8.09-5.316h-8.654c-4.573,0-5.378-0.866-5.378-3.433c0-3.556,2.003-3.852,7.646-3.852h3.098
		c7.679,0,8.045,0.626,8.098,4.062h2.743V6.697c0-3.853-1.82-5.697-9.074-5.697h-6.306c-6.027,0-8.954,1.101-8.954,6.028
		c0,5.732,2.929,6.266,11.852,6.266h5.56c3.642,0,4.716,0.693,4.716,3.403c0,3.106-1.251,4.001-5.491,4.001h-9.076
		c-3.643,0-4.775-1.021-4.775-3.137v-1.52h-2.749L141.099,17.623L141.099,17.623z"/>
	<polygon fill="#1B181C" points="30.453,22.819 24.093,22.842 15.25,14.005 6.431,22.799 0,22.81 11.407,11.402 1.225,1.232 
		7.731,1.232 15.25,8.734 22.751,1.232 29.231,1.232 19.031,11.402 	"/>
	<path fill="#E10728" d="M43.342,16.36c0,0.541-0.439,0.986-0.981,0.986h-7.884c-0.542,0-0.988-0.448-0.988-0.986V8.477
		c0-0.543,0.445-0.979,0.988-0.979h7.884c0.543,0,0.981,0.439,0.981,0.979V16.36z"/>
	<polygon fill="#FFFFFF" points="42.04,11.226 42.04,13.612 39.641,13.612 39.645,16.044 37.22,16.044 37.22,13.612 34.793,13.612 
		34.793,11.226 37.193,11.226 37.193,8.794 39.613,8.794 39.613,11.226 	"/>
</g>
<g>
	<polygon fill="#010202" points="228.95,13.505 229.594,12.437 230.043,12.437 230.043,12.312 228.965,12.312 228.965,12.437 
		229.416,12.437 228.57,13.829 228.222,13.829 228.222,12.437 228.682,12.437 228.682,12.312 227.182,12.312 227.182,12.437 
		227.653,12.437 227.653,15.754 227.182,15.754 227.182,15.879 228.67,15.879 228.67,15.754 228.222,15.754 228.222,13.983 
		228.57,13.983 229.459,15.754 229.069,15.754 229.069,15.879 230.555,15.879 230.555,15.754 230.135,15.754 	"/>
	<g>
		<path fill="#010202" d="M232.981,13.825c-0.088-0.13-0.206-0.235-0.354-0.32c-0.148-0.088-0.335-0.13-0.559-0.13
			c-0.222,0-0.408,0.042-0.557,0.13c-0.146,0.085-0.266,0.19-0.356,0.32c-0.09,0.128-0.154,0.267-0.192,0.418
			c-0.037,0.147-0.057,0.287-0.057,0.413c0,0.128,0.02,0.267,0.057,0.416c0.038,0.148,0.103,0.288,0.192,0.415
			c0.091,0.128,0.21,0.236,0.356,0.321c0.148,0.089,0.335,0.131,0.557,0.131c0.224,0,0.41-0.042,0.559-0.131
			c0.147-0.085,0.266-0.193,0.354-0.321c0.091-0.127,0.156-0.267,0.193-0.415c0.039-0.149,0.059-0.288,0.059-0.416
			c0-0.126-0.02-0.266-0.059-0.413C233.138,14.092,233.072,13.953,232.981,13.825 M232.656,15.058
			c-0.009,0.14-0.031,0.265-0.07,0.375c-0.039,0.111-0.096,0.204-0.175,0.275c-0.082,0.071-0.193,0.106-0.342,0.106
			c-0.145,0-0.261-0.035-0.34-0.106c-0.083-0.071-0.142-0.164-0.178-0.275c-0.039-0.11-0.06-0.235-0.064-0.375
			c-0.008-0.137-0.012-0.271-0.012-0.401c0-0.129,0.004-0.263,0.012-0.402c0.005-0.137,0.025-0.263,0.064-0.375
			c0.036-0.109,0.095-0.2,0.178-0.273c0.079-0.071,0.195-0.107,0.34-0.107c0.148,0,0.26,0.036,0.342,0.107
			c0.079,0.073,0.136,0.164,0.175,0.273c0.039,0.112,0.062,0.238,0.07,0.375c0.005,0.14,0.008,0.273,0.008,0.402
			C232.664,14.786,232.661,14.921,232.656,15.058"/>
		<path fill="#010202" d="M236.244,14.078c0-0.249-0.062-0.43-0.181-0.54c-0.123-0.109-0.306-0.163-0.553-0.163
			c-0.208,0-0.384,0.044-0.53,0.136s-0.257,0.224-0.334,0.392h-0.009v-0.468h-0.94v0.119h0.432v2.2h-0.432v0.125h1.332v-0.125
			h-0.392v-1.301c0-0.115,0.013-0.229,0.043-0.338c0.031-0.108,0.075-0.203,0.134-0.289c0.057-0.083,0.129-0.151,0.215-0.202
			c0.09-0.051,0.188-0.075,0.305-0.075c0.089,0,0.157,0.016,0.212,0.048c0.051,0.031,0.092,0.072,0.122,0.126
			c0.027,0.051,0.045,0.108,0.055,0.174c0.008,0.064,0.013,0.132,0.013,0.203v1.654h-0.396v0.125h1.299v-0.125h-0.395V14.078z"/>
		<path fill="#010202" d="M238.839,12.495c-0.048-0.062-0.11-0.113-0.185-0.15c-0.073-0.037-0.154-0.062-0.241-0.074
			c-0.089-0.013-0.17-0.02-0.241-0.02c-0.095,0-0.188,0.011-0.284,0.03c-0.093,0.021-0.179,0.056-0.256,0.107
			c-0.073,0.052-0.133,0.122-0.18,0.207c-0.048,0.09-0.071,0.203-0.071,0.339v0.5h-0.418v0.124h0.418v2.195h-0.418v0.125h1.332
			v-0.125h-0.404v-2.195h0.479v-0.124h-0.479v-0.56c0-0.072,0.004-0.14,0.011-0.202c0.006-0.062,0.021-0.115,0.042-0.16
			c0.022-0.045,0.053-0.08,0.095-0.104c0.041-0.021,0.095-0.033,0.161-0.033c0.098,0,0.166,0.028,0.206,0.087
			c0.039,0.058,0.06,0.14,0.06,0.247c0,0.156,0.078,0.236,0.235,0.236c0.066,0,0.119-0.02,0.155-0.057
			c0.039-0.036,0.061-0.087,0.061-0.154C238.916,12.639,238.89,12.559,238.839,12.495"/>
		<path fill="#010202" d="M241.145,14.502c0-0.166-0.024-0.317-0.076-0.456c-0.052-0.14-0.123-0.256-0.22-0.357
			c-0.096-0.101-0.207-0.178-0.339-0.233c-0.132-0.055-0.278-0.08-0.438-0.08c-0.183,0-0.345,0.033-0.487,0.104
			c-0.145,0.07-0.267,0.163-0.363,0.283c-0.103,0.116-0.18,0.253-0.232,0.408c-0.054,0.154-0.078,0.318-0.078,0.486
			c0,0.178,0.022,0.342,0.069,0.497c0.045,0.154,0.119,0.29,0.211,0.406c0.097,0.118,0.213,0.21,0.355,0.277
			c0.142,0.069,0.306,0.103,0.491,0.103c0.136,0,0.262-0.014,0.375-0.037c0.113-0.026,0.214-0.066,0.305-0.121
			c0.089-0.058,0.17-0.135,0.238-0.231c0.07-0.097,0.131-0.219,0.185-0.365l-0.107-0.039c-0.035,0.09-0.075,0.174-0.121,0.252
			c-0.047,0.079-0.103,0.146-0.167,0.204c-0.065,0.057-0.142,0.1-0.228,0.134c-0.087,0.033-0.187,0.052-0.301,0.052
			c-0.158,0-0.288-0.034-0.384-0.098c-0.101-0.063-0.174-0.15-0.227-0.265c-0.053-0.113-0.084-0.245-0.103-0.394
			c-0.018-0.15-0.024-0.313-0.024-0.489v-0.04H241.145z M239.503,14.084c0.019-0.097,0.045-0.19,0.086-0.274
			c0.04-0.087,0.095-0.161,0.165-0.222c0.068-0.061,0.157-0.09,0.264-0.09c0.125,0,0.226,0.027,0.298,0.083
			c0.071,0.056,0.125,0.123,0.158,0.209c0.036,0.082,0.056,0.173,0.062,0.271c0.008,0.102,0.012,0.195,0.012,0.285h-1.068
			C239.479,14.271,239.485,14.185,239.503,14.084"/>
		<path fill="#010202" d="M243.256,13.375c-0.095,0-0.181,0.018-0.254,0.057c-0.072,0.039-0.137,0.088-0.196,0.149
			c-0.059,0.061-0.107,0.13-0.148,0.205c-0.038,0.074-0.072,0.149-0.099,0.221h-0.01v-0.572h-0.938v0.124h0.43v2.195h-0.43v0.125
			h1.351v-0.125h-0.412v-1.092c0-0.134,0.016-0.267,0.049-0.4c0.034-0.133,0.078-0.251,0.13-0.356
			c0.055-0.105,0.113-0.19,0.178-0.254c0.065-0.066,0.131-0.098,0.197-0.098c0.036,0,0.066,0.012,0.089,0.034
			c0.023,0.022,0.036,0.054,0.036,0.092c0,0.031-0.004,0.074-0.013,0.124c-0.008,0.05-0.012,0.093-0.012,0.13
			c0,0.075,0.024,0.137,0.073,0.184c0.051,0.048,0.109,0.069,0.176,0.069c0.089,0,0.155-0.029,0.197-0.092
			c0.041-0.06,0.063-0.143,0.063-0.241c0-0.146-0.039-0.264-0.116-0.349C243.521,13.417,243.406,13.375,243.256,13.375"/>
		<path fill="#010202" d="M246.357,14.502c0-0.166-0.025-0.317-0.078-0.456c-0.051-0.14-0.125-0.256-0.22-0.357
			c-0.096-0.101-0.207-0.178-0.34-0.233c-0.131-0.055-0.274-0.08-0.436-0.08c-0.185,0-0.347,0.033-0.489,0.104
			s-0.265,0.163-0.365,0.283c-0.099,0.116-0.176,0.253-0.229,0.408c-0.053,0.154-0.081,0.318-0.081,0.486
			c0,0.178,0.025,0.342,0.071,0.497c0.046,0.154,0.116,0.29,0.213,0.406c0.093,0.118,0.212,0.21,0.354,0.277
			c0.142,0.069,0.306,0.103,0.492,0.103c0.136,0,0.262-0.014,0.375-0.037c0.111-0.026,0.214-0.066,0.302-0.121
			c0.093-0.058,0.17-0.135,0.242-0.231c0.068-0.097,0.131-0.219,0.184-0.365l-0.11-0.039c-0.031,0.09-0.073,0.174-0.118,0.252
			c-0.048,0.079-0.103,0.146-0.166,0.204c-0.065,0.057-0.143,0.1-0.229,0.134c-0.086,0.033-0.187,0.052-0.298,0.052
			c-0.161,0-0.288-0.034-0.39-0.098c-0.096-0.063-0.173-0.15-0.224-0.265c-0.052-0.113-0.088-0.245-0.101-0.394
			c-0.017-0.15-0.026-0.313-0.026-0.489v-0.04H246.357z M244.716,14.084c0.013-0.097,0.044-0.19,0.084-0.274
			c0.04-0.087,0.094-0.161,0.165-0.222c0.07-0.061,0.157-0.09,0.264-0.09c0.127,0,0.227,0.027,0.298,0.083
			c0.07,0.056,0.125,0.123,0.16,0.209c0.033,0.082,0.056,0.173,0.062,0.271c0.007,0.102,0.01,0.195,0.01,0.285h-1.068
			C244.689,14.271,244.699,14.185,244.716,14.084"/>
		<path fill="#010202" d="M249.367,14.078c0-0.249-0.062-0.43-0.183-0.54c-0.122-0.109-0.305-0.163-0.551-0.163
			c-0.206,0-0.384,0.044-0.53,0.136c-0.146,0.092-0.257,0.224-0.334,0.392h-0.011v-0.468h-0.938v0.119h0.43v2.2h-0.43v0.125h1.333
			v-0.125h-0.396v-1.301c0-0.115,0.017-0.229,0.046-0.338c0.029-0.108,0.074-0.203,0.133-0.289c0.059-0.083,0.13-0.151,0.217-0.202
			s0.188-0.075,0.305-0.075c0.086,0,0.157,0.016,0.21,0.048c0.052,0.031,0.093,0.072,0.124,0.126
			c0.025,0.051,0.044,0.108,0.053,0.174c0.008,0.064,0.015,0.132,0.015,0.203v1.654h-0.397v0.125h1.298v-0.125h-0.394V14.078z"/>
		<path fill="#010202" d="M250.286,13.435v0.827h0.119c0.016-0.253,0.072-0.433,0.17-0.541c0.096-0.106,0.261-0.162,0.489-0.162
			h0.569l-1.558,2.32h2.2v-0.952h-0.149c-0.002,0.123-0.016,0.236-0.036,0.336c-0.02,0.103-0.059,0.189-0.121,0.264
			c-0.061,0.073-0.15,0.129-0.263,0.168c-0.116,0.041-0.271,0.06-0.462,0.06h-0.512l1.567-2.319H250.286z"/>
		<path fill="#010202" d="M243.924,7.548c0,0-0.302,0.938-0.728,1.4c-0.347,0.374-1.273,0.445-2.751,0.445
			c-0.724,0-1.22-0.018-1.63-0.056l5.52-7.651l-0.156-0.312h-5.403c-0.486,0-0.486-0.083-0.617-0.329h-0.503
			c-0.041,1.174-0.17,2.627-0.17,2.627l0.599,0.02c0,0,0.122-0.525,0.345-0.981c0.275-0.557,0.404-0.628,1.798-0.631h2.215
			l-5.596,7.7l0.173,0.324h6.982c0.205-0.753,0.519-2.435,0.519-2.435L243.924,7.548z"/>
		<path fill="#010202" d="M228.438,3.66v2.874c0,0.953-0.025,1.682-0.079,2.223c-0.027,0.29-0.119,0.525-0.421,0.644
			c-0.255,0.099-0.728,0.104-0.728,0.104v0.599h3.335V9.505c0,0-0.542-0.011-0.825-0.115c-0.324-0.119-0.399-0.352-0.43-0.66
			c-0.053-0.504-0.079-1.224-0.079-2.195V3.555l5.418,6.557h0.58V4.837c0-1.13,0.021-1.77,0.077-2.198
			c0.021-0.214,0.105-0.442,0.334-0.541c0.29-0.126,0.764-0.129,0.764-0.129V1.374h-3.32v0.598c0,0,0.268,0,0.618,0.048
			c0.57,0.083,0.637,0.417,0.661,0.665c0.063,0.437,0.093,1.1,0.093,2.152v2.826l-5.327-6.289h-2.095v0.593
			c0,0,0.64,0.008,0.933,0.217C228.486,2.563,228.438,2.928,228.438,3.66"/>
		<path fill="#010202" d="M251.452,8.948c-0.345,0.374-1.271,0.445-2.751,0.445c-0.723,0-1.218-0.018-1.628-0.056l5.519-7.651
			l-0.154-0.312h-5.403c-0.486,0-0.486-0.083-0.62-0.329h-0.5c-0.042,1.174-0.171,2.627-0.171,2.627l0.597,0.02
			c0,0,0.122-0.525,0.35-0.981c0.272-0.557,0.402-0.628,1.796-0.631h2.213l-5.596,7.7l0.172,0.324h6.983
			c0.204-0.753,0.519-2.435,0.519-2.435l-0.595-0.121C252.182,7.548,251.879,8.486,251.452,8.948"/>
		<rect x="259.251" y="1.308" fill="#010202" width="0.83" height="5.808"/>
		<polygon fill="#010202" points="264.226,7.115 264.226,1.308 263.396,1.308 263.396,4.807 263.378,4.807 262.121,1.308 
			261.321,1.308 261.321,7.115 262.156,7.115 262.156,3.625 262.169,3.625 263.443,7.115 		"/>
		<polygon fill="#010202" points="266.246,4.636 267.68,4.636 267.68,3.854 266.246,3.854 266.246,2.09 267.895,2.09 267.895,1.308 
			265.415,1.308 265.415,7.115 266.246,7.115 		"/>
		<path fill="#010202" d="M269.016,6.809c0.133,0.117,0.28,0.205,0.448,0.266c0.167,0.06,0.333,0.089,0.501,0.089
			c0.171,0,0.337-0.029,0.503-0.089c0.165-0.061,0.314-0.148,0.449-0.266c0.131-0.115,0.24-0.266,0.32-0.44
			c0.082-0.176,0.122-0.385,0.122-0.622V2.679c0-0.234-0.04-0.44-0.122-0.62c-0.08-0.181-0.189-0.328-0.32-0.445
			c-0.135-0.116-0.284-0.206-0.449-0.267c-0.166-0.059-0.332-0.089-0.503-0.089c-0.168,0-0.334,0.03-0.501,0.089
			c-0.168,0.061-0.315,0.15-0.448,0.267c-0.135,0.117-0.239,0.265-0.321,0.445c-0.082,0.18-0.123,0.386-0.123,0.62v3.067
			c0,0.237,0.041,0.446,0.123,0.622C268.776,6.543,268.881,6.693,269.016,6.809 M269.401,2.679c0-0.201,0.057-0.35,0.167-0.444
			c0.112-0.097,0.246-0.145,0.396-0.145c0.152,0,0.285,0.048,0.396,0.145c0.11,0.095,0.168,0.243,0.168,0.444v3.067
			c0,0.2-0.058,0.348-0.168,0.444c-0.111,0.093-0.244,0.142-0.396,0.142c-0.15,0-0.284-0.049-0.396-0.142
			c-0.11-0.097-0.167-0.244-0.167-0.444V2.679z"/>
		<path fill="#010202" d="M273.226,4.636h0.495l0.774,2.479h0.882l-0.897-2.649c0.268-0.148,0.453-0.344,0.559-0.585
			c0.107-0.243,0.161-0.531,0.161-0.868c0-1.136-0.491-1.705-1.471-1.705h-1.336v5.808h0.833V4.636z M273.226,2.09h0.429
			c0.155,0,0.275,0.021,0.37,0.059c0.091,0.037,0.164,0.098,0.214,0.174c0.054,0.08,0.086,0.175,0.104,0.285
			c0.016,0.113,0.023,0.241,0.023,0.388c0,0.148-0.008,0.276-0.023,0.389c-0.019,0.111-0.05,0.206-0.097,0.282
			c-0.045,0.074-0.112,0.133-0.198,0.173c-0.087,0.042-0.204,0.062-0.351,0.062h-0.472V2.09z"/>
		<polygon fill="#010202" points="277.206,3.583 277.223,3.583 278.039,6.078 278.453,6.078 279.279,3.583 279.293,3.583 
			279.293,7.115 280.127,7.115 280.127,1.308 279.319,1.308 278.259,4.383 278.24,4.383 277.175,1.308 276.376,1.308 276.376,7.115 
			277.206,7.115 		"/>
		<path fill="#010202" d="M282.137,1.308l-1.298,5.808h0.832l0.245-1.249h1.136l0.244,1.249h0.83l-1.296-5.808H282.137z
			 M282.064,5.083l0.407-2.103h0.016l0.407,2.103H282.064z"/>
		<polygon fill="#010202" points="285.098,7.115 285.93,7.115 285.93,2.09 286.894,2.09 286.894,1.308 284.137,1.308 284.137,2.09 
			285.098,2.09 		"/>
		<rect x="287.625" y="1.308" fill="#010202" width="0.831" height="5.808"/>
		<path fill="#010202" d="M290.13,6.809c0.134,0.117,0.285,0.205,0.451,0.266c0.165,0.06,0.332,0.089,0.501,0.089
			c0.167,0,0.335-0.029,0.501-0.089c0.165-0.061,0.315-0.148,0.447-0.266c0.134-0.115,0.243-0.266,0.322-0.44
			c0.083-0.176,0.123-0.385,0.123-0.622V2.679c0-0.234-0.04-0.44-0.123-0.62c-0.079-0.181-0.188-0.328-0.322-0.445
			c-0.132-0.116-0.282-0.206-0.447-0.267c-0.166-0.059-0.334-0.089-0.501-0.089c-0.169,0-0.336,0.03-0.501,0.089
			c-0.166,0.061-0.317,0.15-0.451,0.267c-0.133,0.117-0.239,0.265-0.32,0.445c-0.082,0.18-0.124,0.386-0.124,0.62v3.067
			c0,0.237,0.042,0.446,0.124,0.622C289.891,6.543,289.997,6.693,290.13,6.809 M290.519,2.679c0-0.201,0.056-0.35,0.168-0.444
			c0.11-0.097,0.242-0.145,0.396-0.145c0.151,0,0.283,0.048,0.394,0.145c0.114,0.095,0.17,0.243,0.17,0.444v3.067
			c0,0.2-0.056,0.348-0.17,0.444c-0.11,0.093-0.242,0.142-0.394,0.142c-0.153,0-0.285-0.049-0.396-0.142
			c-0.112-0.097-0.168-0.244-0.168-0.444V2.679z"/>
		<polygon fill="#010202" points="295.673,4.807 295.656,4.807 294.398,1.308 293.6,1.308 293.6,7.115 294.434,7.115 294.434,3.625 
			294.449,3.625 295.721,7.115 296.503,7.115 296.503,1.308 295.673,1.308 		"/>
		<path fill="#010202" d="M261.483,10.396c-0.12-0.122-0.259-0.219-0.423-0.288c-0.163-0.065-0.34-0.101-0.529-0.101
			c-0.202,0-0.387,0.035-0.552,0.101c-0.166,0.069-0.307,0.165-0.428,0.282c-0.119,0.122-0.213,0.263-0.277,0.427
			c-0.065,0.162-0.098,0.339-0.098,0.528v3.198c0,0.266,0.042,0.487,0.126,0.659c0.083,0.174,0.193,0.315,0.321,0.42
			c0.132,0.106,0.279,0.182,0.441,0.226c0.164,0.043,0.323,0.066,0.482,0.066c0.185,0,0.355-0.039,0.517-0.111
			c0.16-0.074,0.299-0.171,0.419-0.293c0.122-0.122,0.215-0.267,0.283-0.429c0.067-0.161,0.103-0.335,0.103-0.515v-0.358h-0.832
			v0.284c0,0.117-0.018,0.21-0.051,0.287c-0.03,0.077-0.072,0.136-0.125,0.179c-0.053,0.044-0.109,0.075-0.173,0.095
			c-0.062,0.019-0.121,0.028-0.175,0.028c-0.189,0-0.323-0.057-0.395-0.173c-0.074-0.111-0.11-0.254-0.11-0.421v-2.971
			c0-0.194,0.033-0.359,0.103-0.486c0.068-0.126,0.203-0.19,0.411-0.19c0.158,0,0.282,0.059,0.375,0.18
			c0.092,0.12,0.14,0.26,0.14,0.424v0.277h0.832v-0.326c0-0.202-0.035-0.388-0.103-0.558
			C261.698,10.664,261.605,10.518,261.483,10.396"/>
		<path fill="#010202" d="M265.114,10.363c-0.134-0.117-0.281-0.205-0.449-0.265c-0.164-0.059-0.333-0.091-0.501-0.091
			s-0.336,0.032-0.502,0.091c-0.166,0.06-0.315,0.147-0.449,0.265c-0.131,0.116-0.239,0.266-0.32,0.443
			c-0.081,0.181-0.122,0.387-0.122,0.622v3.064c0,0.241,0.041,0.449,0.122,0.624c0.081,0.178,0.189,0.323,0.32,0.442
			c0.134,0.117,0.283,0.205,0.449,0.267c0.166,0.057,0.334,0.089,0.502,0.089s0.337-0.032,0.501-0.089
			c0.168-0.062,0.315-0.149,0.449-0.267c0.135-0.119,0.241-0.265,0.324-0.442c0.079-0.175,0.122-0.383,0.122-0.624v-3.064
			c0-0.235-0.043-0.441-0.122-0.622C265.355,10.629,265.249,10.479,265.114,10.363 M264.728,14.493c0,0.202-0.056,0.352-0.166,0.446
			c-0.111,0.095-0.245,0.143-0.397,0.143c-0.151,0-0.282-0.048-0.396-0.143c-0.111-0.095-0.166-0.244-0.166-0.446v-3.064
			c0-0.203,0.055-0.35,0.166-0.446c0.113-0.094,0.244-0.142,0.396-0.142c0.152,0,0.286,0.048,0.397,0.142
			c0.11,0.097,0.166,0.243,0.166,0.446V14.493z"/>
		<polygon fill="#010202" points="269.582,12.333 269.582,15.863 270.413,15.863 270.413,10.057 269.606,10.057 268.546,13.133 
			268.53,13.133 267.46,10.057 266.662,10.057 266.662,15.863 267.492,15.863 267.492,12.333 267.51,12.333 268.326,14.829 
			268.741,14.829 269.564,12.333 		"/>
		<polygon fill="#010202" points="274.526,12.333 274.542,12.333 274.542,15.863 275.374,15.863 275.374,10.057 274.566,10.057 
			273.506,13.133 273.487,13.133 272.421,10.057 271.621,10.057 271.621,15.863 272.453,15.863 272.453,12.333 272.47,12.333 
			273.287,14.829 273.703,14.829 		"/>
		<path fill="#010202" d="M278.438,15.809c0.163-0.072,0.305-0.168,0.427-0.29c0.123-0.122,0.221-0.267,0.292-0.428
			c0.07-0.164,0.105-0.341,0.105-0.53v-4.504h-0.833v4.421c0,0.208-0.048,0.36-0.146,0.457c-0.098,0.099-0.221,0.147-0.366,0.147
			c-0.148,0-0.271-0.049-0.369-0.147c-0.097-0.097-0.146-0.249-0.146-0.457v-4.421h-0.831v4.504c0,0.189,0.036,0.366,0.107,0.53
			c0.07,0.161,0.166,0.306,0.288,0.428s0.265,0.218,0.428,0.29c0.164,0.07,0.338,0.106,0.523,0.106
			C278.1,15.915,278.274,15.879,278.438,15.809"/>
		<polygon fill="#010202" points="283.353,15.863 283.353,10.057 282.521,10.057 282.521,13.558 282.504,13.558 281.249,10.057 
			280.45,10.057 280.45,15.863 281.28,15.863 281.28,12.376 281.297,12.376 282.57,15.863 		"/>
		<rect x="284.552" y="10.057" fill="#010202" width="0.833" height="5.807"/>
		<path fill="#010202" d="M288.879,15.511c0.12-0.122,0.214-0.267,0.281-0.429c0.07-0.161,0.103-0.335,0.103-0.515v-0.358h-0.83
			v0.284c0,0.117-0.017,0.21-0.052,0.287c-0.03,0.077-0.071,0.136-0.125,0.179c-0.052,0.044-0.108,0.075-0.173,0.095
			c-0.062,0.02-0.121,0.028-0.174,0.028c-0.19,0-0.321-0.057-0.396-0.173c-0.071-0.111-0.11-0.254-0.11-0.421v-2.971
			c0-0.194,0.036-0.359,0.103-0.486c0.067-0.126,0.204-0.19,0.411-0.19c0.158,0,0.283,0.059,0.375,0.18
			c0.094,0.12,0.141,0.26,0.141,0.424v0.277h0.83v-0.326c0-0.202-0.032-0.388-0.103-0.558c-0.067-0.174-0.161-0.32-0.281-0.441
			c-0.119-0.122-0.258-0.219-0.423-0.288c-0.164-0.065-0.339-0.101-0.529-0.101c-0.203,0-0.387,0.035-0.552,0.101
			c-0.166,0.069-0.308,0.165-0.428,0.282c-0.12,0.122-0.212,0.263-0.278,0.427c-0.064,0.162-0.097,0.339-0.097,0.528v3.198
			c0,0.266,0.041,0.487,0.127,0.659c0.081,0.174,0.191,0.315,0.32,0.42c0.131,0.106,0.279,0.182,0.441,0.226
			c0.163,0.043,0.322,0.066,0.481,0.066c0.184,0,0.356-0.039,0.518-0.111C288.621,15.729,288.76,15.633,288.879,15.511"/>
		<path fill="#010202" d="M291.012,10.057l-1.296,5.807h0.829l0.245-1.247h1.136l0.243,1.247h0.832l-1.298-5.807H291.012z
			 M290.938,13.834l0.407-2.104h0.016l0.408,2.104H290.938z"/>
		<polygon fill="#010202" points="293.018,10.841 293.979,10.841 293.979,15.863 294.812,15.863 294.812,10.841 295.775,10.841 
			295.775,10.057 293.018,10.057 		"/>
		<rect x="296.6" y="10.057" fill="#010202" width="0.83" height="5.807"/>
		<path fill="#010202" d="M300.891,10.363c-0.132-0.117-0.28-0.205-0.448-0.265c-0.165-0.059-0.332-0.091-0.502-0.091
			c-0.169,0-0.335,0.032-0.501,0.091c-0.166,0.06-0.315,0.147-0.447,0.265c-0.134,0.116-0.241,0.266-0.323,0.443
			c-0.083,0.181-0.123,0.387-0.123,0.622v3.064c0,0.241,0.04,0.449,0.123,0.624c0.082,0.178,0.189,0.323,0.323,0.442
			c0.132,0.117,0.281,0.205,0.447,0.267c0.166,0.057,0.332,0.089,0.501,0.089c0.17,0,0.337-0.032,0.502-0.089
			c0.168-0.062,0.316-0.149,0.448-0.267c0.133-0.119,0.241-0.265,0.322-0.442c0.082-0.175,0.124-0.383,0.124-0.624v-3.064
			c0-0.235-0.042-0.441-0.124-0.622C301.132,10.629,301.023,10.479,300.891,10.363 M300.504,14.493c0,0.202-0.057,0.352-0.166,0.446
			c-0.112,0.095-0.244,0.143-0.397,0.143s-0.284-0.048-0.395-0.143s-0.167-0.244-0.167-0.446v-3.064c0-0.203,0.057-0.35,0.167-0.446
			c0.11-0.094,0.241-0.142,0.395-0.142s0.285,0.048,0.397,0.142c0.109,0.097,0.166,0.243,0.166,0.446V14.493z"/>
		<polygon fill="#010202" points="304.394,10.057 304.394,13.558 304.379,13.558 303.121,10.057 302.322,10.057 302.322,15.863 
			303.155,15.863 303.155,12.376 303.17,12.376 304.444,15.863 305.227,15.863 305.227,10.057 		"/>
		<polygon fill="#010202" points="258.81,19.617 259.771,19.617 259.771,24.642 260.604,24.642 260.604,19.617 261.566,19.617 
			261.566,18.833 258.81,18.833 		"/>
		<polygon fill="#010202" points="262.49,24.642 264.971,24.642 264.971,23.81 263.322,23.81 263.322,22.104 264.759,22.104 
			264.759,21.322 263.322,21.322 263.322,19.617 264.971,19.617 264.971,18.833 262.49,18.833 		"/>
		<path fill="#010202" d="M268.154,19.174c-0.119-0.124-0.262-0.22-0.426-0.288c-0.162-0.065-0.338-0.102-0.53-0.102
			c-0.201,0-0.384,0.036-0.55,0.102c-0.167,0.068-0.308,0.163-0.429,0.281c-0.119,0.12-0.212,0.262-0.276,0.426
			c-0.066,0.162-0.099,0.341-0.099,0.529v3.197c0,0.267,0.042,0.487,0.127,0.661s0.191,0.313,0.322,0.419
			c0.131,0.108,0.276,0.181,0.439,0.227c0.164,0.043,0.324,0.064,0.481,0.064c0.186,0,0.357-0.037,0.518-0.11
			c0.162-0.072,0.303-0.171,0.422-0.294c0.119-0.122,0.213-0.267,0.279-0.429c0.07-0.161,0.103-0.333,0.103-0.514v-0.359h-0.831
			v0.288c0,0.112-0.017,0.206-0.049,0.282c-0.032,0.08-0.074,0.138-0.127,0.183c-0.05,0.042-0.109,0.075-0.172,0.092
			c-0.062,0.021-0.122,0.028-0.174,0.028c-0.19,0-0.323-0.057-0.396-0.17c-0.074-0.114-0.111-0.257-0.111-0.424v-2.971
			c0-0.194,0.035-0.358,0.104-0.483c0.067-0.128,0.204-0.192,0.41-0.192c0.159,0,0.284,0.06,0.376,0.179
			c0.093,0.12,0.139,0.263,0.139,0.425v0.277h0.831v-0.327c0-0.199-0.032-0.387-0.103-0.558
			C268.367,19.442,268.273,19.295,268.154,19.174"/>
		<polygon fill="#010202" points="271.423,21.322 270.396,21.322 270.396,18.833 269.563,18.833 269.563,24.642 270.396,24.642 
			270.396,22.057 271.423,22.057 271.423,24.642 272.255,24.642 272.255,18.833 271.423,18.833 		"/>
		<polygon fill="#010202" points="275.583,22.333 275.568,22.333 274.312,18.833 273.512,18.833 273.512,24.642 274.344,24.642 
			274.344,21.15 274.359,21.15 275.632,24.642 276.417,24.642 276.417,18.833 275.583,18.833 		"/>
		<path fill="#010202" d="M279.946,19.14c-0.134-0.118-0.282-0.206-0.448-0.265c-0.165-0.06-0.334-0.091-0.501-0.091
			c-0.17,0-0.337,0.031-0.504,0.091c-0.163,0.059-0.315,0.146-0.446,0.265c-0.134,0.115-0.241,0.265-0.323,0.445
			c-0.081,0.179-0.122,0.387-0.122,0.619v3.068c0,0.238,0.041,0.446,0.122,0.623c0.082,0.178,0.189,0.322,0.323,0.439
			c0.131,0.118,0.283,0.205,0.446,0.265c0.167,0.062,0.334,0.091,0.504,0.091c0.167,0,0.336-0.029,0.501-0.091
			c0.166-0.06,0.314-0.146,0.448-0.265c0.134-0.117,0.24-0.262,0.323-0.439c0.08-0.177,0.123-0.385,0.123-0.623v-3.068
			c0-0.232-0.043-0.44-0.123-0.619C280.187,19.404,280.08,19.255,279.946,19.14 M279.56,23.272c0,0.199-0.057,0.348-0.167,0.442
			c-0.111,0.098-0.244,0.143-0.396,0.143c-0.153,0-0.284-0.045-0.396-0.143c-0.112-0.095-0.168-0.243-0.168-0.442v-3.068
			c0-0.201,0.056-0.35,0.168-0.445c0.112-0.095,0.243-0.142,0.396-0.142c0.151,0,0.284,0.047,0.396,0.142
			c0.11,0.096,0.167,0.244,0.167,0.445V23.272z"/>
		<polygon fill="#010202" points="282.271,18.833 281.438,18.833 281.438,24.642 283.918,24.642 283.918,23.81 282.271,23.81 		"/>
		<path fill="#010202" d="M286.783,19.14c-0.134-0.118-0.281-0.206-0.447-0.265c-0.166-0.06-0.335-0.091-0.503-0.091
			s-0.336,0.031-0.5,0.091c-0.169,0.059-0.317,0.146-0.449,0.265c-0.134,0.115-0.241,0.265-0.322,0.445
			c-0.081,0.179-0.123,0.387-0.123,0.619v3.068c0,0.238,0.042,0.446,0.123,0.623c0.081,0.178,0.188,0.322,0.322,0.439
			c0.132,0.118,0.28,0.205,0.449,0.265c0.164,0.062,0.332,0.091,0.5,0.091s0.337-0.029,0.503-0.091
			c0.166-0.06,0.313-0.146,0.447-0.265c0.134-0.117,0.241-0.262,0.323-0.439c0.082-0.177,0.123-0.385,0.123-0.623v-3.068
			c0-0.232-0.041-0.44-0.123-0.619C287.024,19.404,286.917,19.255,286.783,19.14 M286.396,23.272c0,0.199-0.057,0.348-0.167,0.442
			c-0.112,0.098-0.245,0.143-0.396,0.143s-0.282-0.045-0.396-0.143c-0.111-0.095-0.167-0.243-0.167-0.442v-3.068
			c0-0.201,0.056-0.35,0.167-0.445c0.113-0.095,0.244-0.142,0.396-0.142s0.284,0.047,0.396,0.142
			c0.11,0.096,0.167,0.244,0.167,0.445V23.272z"/>
		<path fill="#010202" d="M290.703,19.14c-0.134-0.118-0.283-0.206-0.449-0.265c-0.167-0.06-0.333-0.091-0.503-0.091
			c-0.168,0-0.332,0.031-0.5,0.091c-0.166,0.059-0.315,0.146-0.448,0.265c-0.133,0.115-0.24,0.265-0.322,0.445
			c-0.083,0.179-0.122,0.387-0.122,0.62v3.067c0,0.238,0.039,0.446,0.122,0.623c0.082,0.178,0.189,0.322,0.322,0.439
			c0.133,0.118,0.282,0.205,0.448,0.265c0.168,0.062,0.332,0.091,0.5,0.091c0.17,0,0.336-0.029,0.503-0.091
			c0.166-0.06,0.315-0.146,0.449-0.265c0.134-0.117,0.24-0.262,0.322-0.439c0.081-0.177,0.123-0.385,0.123-0.623v-1.828h-1.492
			v0.734h0.659v1.094c0,0.199-0.056,0.348-0.166,0.442c-0.112,0.095-0.244,0.143-0.398,0.143c-0.149,0-0.282-0.048-0.394-0.143
			c-0.112-0.095-0.167-0.243-0.167-0.442v-3.067c0-0.202,0.055-0.351,0.167-0.445c0.111-0.096,0.244-0.143,0.394-0.143
			c0.154,0,0.286,0.047,0.398,0.143c0.11,0.095,0.166,0.243,0.166,0.445v0.293h0.833v-0.293c0-0.233-0.042-0.441-0.123-0.62
			C290.943,19.404,290.837,19.255,290.703,19.14"/>
		<polygon fill="#010202" points="293.343,21.143 293.325,21.143 292.657,18.833 291.777,18.833 292.919,22.187 292.919,24.642 
			293.752,24.642 293.752,22.187 294.893,18.833 294.012,18.833 		"/>
		<rect x="256.591" y="1.336" fill="#010202" width="0.474" height="23.395"/>
	</g>
</g>
</svg>
